<svg width="1080" height="1080" viewBox="0 0 1080 1080" fill="none" xmlns="http://www.w3.org/2000/svg">
<rect width="1080" height="1080" fill="#E9EEF1"/>
<g clip-path="url(#clip0_109_2)">
<path d="M817.539 495.469C817.539 493.125 817.93 490.781 817.93 488.438C817.93 361.484 716.758 258.75 591.953 258.75C501.914 258.75 424.57 312.266 388.242 389.609C372.422 381.602 354.648 376.914 335.898 376.914C278.281 376.914 230.234 419.687 221.055 475.547C151.914 499.375 102.5 565.586 102.5 643.516C102.5 741.563 180.82 821.25 277.305 821.25H477.5V665H383.359L540 501.523L696.641 664.805H602.5V821.055H817.93C906.211 821.055 977.5 747.813 977.5 658.164C977.5 568.516 905.82 495.664 817.539 495.469Z" fill="#BABEC1"/>
</g>
<defs>
<clipPath id="clip0_109_2">
<rect width="1000" height="1000" fill="white" transform="translate(40 40)"/>
</clipPath>
</defs>
</svg>
