<svg width="1080" height="1080" viewBox="0 0 1080 1080" fill="none" xmlns="http://www.w3.org/2000/svg">
<rect width="1080" height="1080" fill="#E9EEF1"/>
<path d="M540 50C269.4 50 50 269.4 50 540C50 810.6 269.4 1030 540 1030C810.6 1030 1030 810.6 1030 540C1030 269.4 810.6 50 540 50ZM540 196.5C629.5 196.5 702.1 269.1 702.1 358.6C702.1 448.1 629.5 520.7 540 520.7C450.5 520.7 377.9 448.1 377.9 358.6C377.9 269.1 450.5 196.5 540 196.5ZM539.9 901.9C450.6 901.9 368.8 869.4 305.7 815.6C290.3 802.5 281.5 783.3 281.5 763.1C281.5 672.3 355 599.7 445.8 599.7H634.4C725.2 599.7 798.4 672.3 798.4 763.1C798.4 783.3 789.6 802.5 774.2 815.6C711 869.3 629.2 901.9 539.9 901.9Z" fill="#BABEC1"/>
</svg>
