<svg width="1920" height="1080" viewBox="0 0 1920 1080" fill="none" xmlns="http://www.w3.org/2000/svg">
<g clip-path="url(#clip0_111_25)">
<rect width="1920" height="1080" fill="white"/>
<g clip-path="url(#clip1_111_25)">
<path d="M2105 -250H-186V1330H2105V-250Z" fill="#E9EEF1"/>
<path d="M1257.73 274.229H661.294C649.79 274.229 638.758 278.801 630.623 286.938C622.488 295.076 617.918 306.112 617.917 317.62V762.383C617.918 773.891 622.489 784.927 630.624 793.064C638.758 801.201 649.791 805.772 661.294 805.772H1257.73C1269.23 805.772 1280.26 801.201 1288.4 793.064C1296.53 784.927 1301.11 773.89 1301.11 762.382V317.62C1301.11 311.922 1299.98 306.279 1297.8 301.015C1295.62 295.75 1292.43 290.966 1288.4 286.937C1284.37 282.908 1279.59 279.712 1274.33 277.531C1269.06 275.351 1263.42 274.228 1257.73 274.229ZM1257.73 317.619V633.19L1172.24 555.443C1166.06 549.817 1157.94 546.79 1149.59 546.99C1141.23 547.19 1133.27 550.602 1127.36 556.518L1040.84 643.055L870.252 439.225C867.222 435.605 863.442 432.688 859.173 430.676C854.904 428.664 850.248 427.605 845.529 427.573C840.809 427.541 836.14 428.537 831.844 430.491C827.548 432.445 823.728 435.311 820.65 438.889L661.294 624.149V317.62L1257.73 317.619ZM1073.37 431.523C1073.37 419.723 1076.87 408.188 1083.43 398.377C1089.98 388.565 1099.29 380.918 1110.19 376.403C1121.09 371.887 1133.08 370.705 1144.65 373.008C1156.22 375.31 1166.85 380.992 1175.19 389.336C1183.53 397.68 1189.21 408.311 1191.51 419.885C1193.81 431.458 1192.63 443.454 1188.12 454.356C1183.6 465.258 1175.96 474.576 1166.15 481.131C1156.34 487.687 1144.81 491.186 1133.02 491.185C1125.18 491.186 1117.43 489.644 1110.19 486.645C1102.95 483.647 1096.38 479.253 1090.84 473.712C1085.3 468.172 1080.91 461.595 1077.91 454.356C1074.92 447.117 1073.37 439.358 1073.37 431.523Z" fill="#BABEC1"/>
</g>
</g>
<defs>
<clipPath id="clip0_111_25">
<rect width="1920" height="1080" fill="white"/>
</clipPath>
<clipPath id="clip1_111_25">
<rect width="2291" height="1580" fill="white" transform="translate(-186 -250)"/>
</clipPath>
</defs>
</svg>
